<mxfile host="65bd71144e">
    <diagram id="oCQY1RcItZYgYoiBQWv2" name="Page-1">
        <mxGraphModel dx="2480" dy="1877" grid="1" gridSize="10" guides="1" tooltips="1" connect="1" arrows="1" fold="1" page="1" pageScale="1" pageWidth="2000" pageHeight="1600" math="0" shadow="0">
            <root>
                <mxCell id="0"/>
                <mxCell id="1" parent="0"/>
                <mxCell id="2" value="" style="rounded=0;whiteSpace=wrap;html=1;" vertex="1" parent="1">
                    <mxGeometry x="310" y="570" width="1470" height="530" as="geometry"/>
                </mxCell>
                <mxCell id="3" value="" style="rounded=0;whiteSpace=wrap;html=1;strokeColor=#9673a6;fillColor=#e1d5e7;" vertex="1" parent="1">
                    <mxGeometry x="350" y="610" width="120" height="150" as="geometry"/>
                </mxCell>
                <mxCell id="6" value="" style="line;strokeWidth=2;direction=south;html=1;" vertex="1" parent="1">
                    <mxGeometry x="570" y="570" width="10" height="230" as="geometry"/>
                </mxCell>
                <mxCell id="7" value="" style="line;strokeWidth=2;direction=south;html=1;" vertex="1" parent="1">
                    <mxGeometry x="560" y="920" width="10" height="160" as="geometry"/>
                </mxCell>
                <mxCell id="8" value="" style="shape=partialRectangle;whiteSpace=wrap;html=1;bottom=0;top=0;" vertex="1" parent="1">
                    <mxGeometry x="740" y="1080" width="170" height="40" as="geometry"/>
                </mxCell>
                <mxCell id="11" value="1" style="rounded=0;whiteSpace=wrap;html=1;strokeColor=#6c8ebf;fillColor=#dae8fc;textOpacity=50;horizontal=1;fontSize=40;" vertex="1" parent="1">
                    <mxGeometry x="610" y="610" width="150" height="150" as="geometry"/>
                </mxCell>
                <mxCell id="13" value="13" style="rounded=0;whiteSpace=wrap;html=1;strokeColor=#6c8ebf;fillColor=#dae8fc;fontSize=40;" vertex="1" parent="1">
                    <mxGeometry x="610" y="920" width="110" height="150" as="geometry"/>
                </mxCell>
                <mxCell id="14" value="2" style="rounded=0;whiteSpace=wrap;html=1;strokeColor=#6c8ebf;fillColor=#dae8fc;fontSize=40;" vertex="1" parent="1">
                    <mxGeometry x="774" y="610" width="150" height="150" as="geometry"/>
                </mxCell>
                <mxCell id="15" value="3" style="rounded=0;whiteSpace=wrap;html=1;strokeColor=#6c8ebf;fillColor=#dae8fc;fontSize=40;" vertex="1" parent="1">
                    <mxGeometry x="938" y="610" width="150" height="150" as="geometry"/>
                </mxCell>
                <mxCell id="16" value="6" style="rounded=0;whiteSpace=wrap;html=1;strokeColor=#6c8ebf;fillColor=#dae8fc;fontSize=40;" vertex="1" parent="1">
                    <mxGeometry x="1432" y="610" width="150" height="150" as="geometry"/>
                </mxCell>
                <mxCell id="17" value="5" style="rounded=0;whiteSpace=wrap;html=1;strokeColor=#6c8ebf;fillColor=#dae8fc;fontSize=40;" vertex="1" parent="1">
                    <mxGeometry x="1266" y="610" width="150" height="150" as="geometry"/>
                </mxCell>
                <mxCell id="18" value="4" style="rounded=0;whiteSpace=wrap;html=1;strokeColor=#6c8ebf;fillColor=#dae8fc;fontSize=40;" vertex="1" parent="1">
                    <mxGeometry x="1102" y="610" width="150" height="150" as="geometry"/>
                </mxCell>
                <mxCell id="19" value="7" style="rounded=0;whiteSpace=wrap;html=1;strokeColor=#6c8ebf;fillColor=#dae8fc;fontSize=40;" vertex="1" parent="1">
                    <mxGeometry x="1596" y="610" width="150" height="150" as="geometry"/>
                </mxCell>
                <mxCell id="21" value="12" style="rounded=0;whiteSpace=wrap;html=1;strokeColor=#6c8ebf;fillColor=#dae8fc;fontSize=40;" vertex="1" parent="1">
                    <mxGeometry x="1618.5217391304345" y="920" width="132.47826086956516" height="150" as="geometry"/>
                </mxCell>
                <mxCell id="22" value="11" style="rounded=0;whiteSpace=wrap;html=1;strokeColor=#6c8ebf;fillColor=#dae8fc;fontSize=40;" vertex="1" parent="1">
                    <mxGeometry x="1437.869565217391" y="920" width="132.47826086956516" height="150" as="geometry"/>
                </mxCell>
                <mxCell id="23" value="10" style="rounded=0;whiteSpace=wrap;html=1;strokeColor=#6c8ebf;fillColor=#dae8fc;fontSize=40;" vertex="1" parent="1">
                    <mxGeometry x="1257.2173913043478" y="920" width="132.47826086956516" height="150" as="geometry"/>
                </mxCell>
                <mxCell id="24" value="9" style="rounded=0;whiteSpace=wrap;html=1;strokeColor=#6c8ebf;fillColor=#dae8fc;fontSize=40;" vertex="1" parent="1">
                    <mxGeometry x="1088.6086956521738" y="920" width="132.47826086956516" height="150" as="geometry"/>
                </mxCell>
                <mxCell id="25" value="8" style="rounded=0;whiteSpace=wrap;html=1;strokeColor=#6c8ebf;fillColor=#dae8fc;fontSize=40;container=1;" vertex="1" parent="1">
                    <mxGeometry x="920" y="920" width="132.47826086956516" height="150" as="geometry"/>
                </mxCell>
                <mxCell id="27" value="15" style="rounded=0;whiteSpace=wrap;html=1;strokeColor=#6c8ebf;fillColor=#dae8fc;fontSize=40;" vertex="1" parent="1">
                    <mxGeometry x="343.76" y="920" width="132.48" height="70" as="geometry"/>
                </mxCell>
                <mxCell id="28" value="14" style="rounded=0;whiteSpace=wrap;html=1;strokeColor=#6c8ebf;fillColor=#dae8fc;fontSize=40;" vertex="1" parent="1">
                    <mxGeometry x="343.76" y="1000" width="132.48" height="70" as="geometry"/>
                </mxCell>
                <mxCell id="31" value="" style="group" vertex="1" connectable="0" parent="1">
                    <mxGeometry x="230" y="572" width="80" height="520" as="geometry"/>
                </mxCell>
                <mxCell id="29" value="" style="shape=manualInput;whiteSpace=wrap;html=1;rotation=-90;" vertex="1" parent="31">
                    <mxGeometry x="-90" y="352" width="260" height="80" as="geometry"/>
                </mxCell>
                <mxCell id="30" value="" style="shape=manualInput;whiteSpace=wrap;html=1;rotation=-90;direction=west;flipV=1;flipH=0;" vertex="1" parent="31">
                    <mxGeometry x="-90" y="90" width="260" height="80" as="geometry"/>
                </mxCell>
            </root>
        </mxGraphModel>
    </diagram>
</mxfile>